<?xml version="1.0" standalone="no"?>
<!DOCTYPE svg PUBLIC "-//W3C//DTD SVG 20010904//EN"
 "http://www.w3.org/TR/2001/REC-SVG-20010904/DTD/svg10.dtd">
<svg version="1.0" xmlns="http://www.w3.org/2000/svg"
 width="142.000000pt" height="142.000000pt" viewBox="0 0 142.000000 142.000000"
 preserveAspectRatio="xMidYMid meet">

<g transform="translate(0.000000,142.000000) scale(0.100000,-0.100000)"
fill="#000000" stroke="none">
<path d="M510 1212 c-99 -49 -104 -228 -9 -278 90 -46 164 15 164 136 -1 80
-23 126 -70 146 -43 18 -43 18 -85 -4z"/>
<path d="M818 1219 c-56 -21 -89 -118 -67 -202 39 -156 229 -111 229 53 0 105
-81 180 -162 149z"/>
<path d="M271 954 c-29 -21 -60 -89 -61 -133 0 -46 34 -114 66 -132 15 -7 45
-13 67 -13 145 4 135 294 -10 294 -21 0 -49 -7 -62 -16z"/>
<path d="M1010 940 c-61 -65 -59 -197 3 -244 32 -23 84 -26 122 -6 56 30 81
131 51 204 -33 79 -124 102 -176 46z"/>
<path d="M632 813 c-32 -15 -51 -35 -115 -120 -18 -23 -72 -76 -121 -118 -120
-105 -145 -164 -114 -268 16 -55 65 -101 123 -117 39 -11 62 -11 134 0 144 22
197 23 297 5 156 -29 239 -3 283 87 43 89 21 180 -61 254 -72 65 -181 177
-217 223 -54 69 -136 90 -209 54z m38 -348 l0 -195 -80 0 c-91 0 -137 15 -167
54 -32 40 -37 89 -14 140 24 56 55 76 125 83 l56 6 0 53 0 54 40 0 40 0 0
-195z m132 -12 l3 -98 43 -3 42 -3 0 100 0 101 40 0 40 0 0 -140 0 -140 -96 0
c-92 0 -97 1 -125 29 -29 29 -29 31 -29 140 l0 111 40 0 39 0 3 -97z"/>
<path d="M498 459 c-12 -7 -18 -22 -18 -49 0 -45 18 -60 74 -60 l36 0 0 60 0
60 -37 0 c-21 0 -46 -5 -55 -11z"/>
</g>
</svg>
