<?xml version="1.0" standalone="no"?>
<!DOCTYPE svg PUBLIC "-//W3C//DTD SVG 20010904//EN"
 "http://www.w3.org/TR/2001/REC-SVG-20010904/DTD/svg10.dtd">
<svg version="1.0" xmlns="http://www.w3.org/2000/svg"
 width="176.000000pt" height="176.000000pt" viewBox="0 0 176.000000 176.000000"
 preserveAspectRatio="xMidYMid meet">

<g transform="translate(0.000000,176.000000) scale(0.100000,-0.100000)"
fill="#000000" stroke="none">
<path d="M470 1348 c0 -303 8 -376 50 -442 37 -58 87 -94 235 -168 l120 -61
130 67 c150 76 214 126 247 194 22 45 23 57 28 365 l5 317 -407 0 -408 0 0
-272z m490 107 l0 -155 155 0 156 0 -3 -87 -3 -88 -152 -3 -153 -3 0 -192 0
-193 -35 -17 c-44 -21 -56 -21 -100 0 l-35 17 0 193 0 193 -150 0 -150 0 -6
24 c-3 13 -4 53 -2 88 l3 63 153 3 152 3 0 154 0 155 85 0 85 0 0 -155z m-335
111 c16 -12 17 -16 6 -30 -7 -9 -11 -25 -8 -36 6 -22 -1 -29 -34 -35 -18 -4
-20 -1 -14 26 4 19 2 36 -6 45 -11 14 -10 18 6 30 10 8 22 14 25 14 3 0 15 -6
25 -14z m125 1 c0 -14 -28 -19 -49 -7 -17 9 -22 8 -27 -5 -6 -15 24 -48 36
-40 3 2 16 -5 29 -14 27 -21 21 -41 -12 -40 -20 1 -20 2 3 8 24 7 23 8 -20 31
-53 27 -62 38 -49 62 8 14 20 18 49 16 22 -2 40 -7 40 -11z m361 3 c27 -15 24
-33 -3 -25 -13 3 -18 3 -12 -2 20 -15 23 -63 4 -73 -10 -5 -20 -6 -24 -2 -4 3
-4 -1 -1 -9 5 -15 10 -14 43 2 52 27 67 24 86 -16 9 -19 21 -35 26 -35 6 0 10
-16 10 -36 0 -19 -4 -33 -9 -30 -5 4 -11 1 -13 -6 -3 -7 -7 -2 -10 10 -4 12
-2 20 2 17 5 -3 10 0 12 7 2 6 -12 28 -31 48 -32 32 -39 34 -59 24 -13 -6 -23
-15 -22 -19 1 -4 -2 -11 -7 -14 -5 -3 -19 -19 -31 -35 -13 -17 -32 -31 -44
-33 -17 -3 -19 -1 -9 11 9 11 9 15 -1 20 -7 3 -3 3 9 0 24 -6 43 19 43 56 0
20 -1 20 -17 5 -15 -15 -17 -15 -25 -1 -5 9 -9 19 -9 23 0 5 -5 14 -11 21 -6
6 -7 12 -4 12 4 0 2 10 -5 21 -8 17 -8 20 1 14 9 -5 10 -1 5 14 -4 12 -2 21 4
21 6 0 11 -18 11 -39 0 -71 22 -94 41 -44 7 19 7 35 -1 52 -10 21 -8 27 6 38
21 16 21 16 45 3z m129 -3 c0 -14 -28 -19 -48 -8 -15 8 -23 7 -32 -4 -9 -11
-7 -16 12 -26 13 -7 25 -13 28 -12 3 1 16 -7 29 -16 27 -21 21 -42 -12 -40
-17 1 -18 2 -4 6 27 7 20 20 -22 36 -69 28 -62 80 10 75 22 -2 39 -7 39 -11z
m-697 -105 c5 -7 13 -10 18 -7 5 4 9 0 9 -8 0 -8 -7 -18 -16 -21 -8 -3 -13 -2
-9 3 3 5 2 11 -3 13 -4 1 -15 22 -24 46 -9 23 -12 39 -6 35 7 -4 9 0 5 9 -3 9
-3 19 1 23 4 4 9 -13 12 -37 3 -23 9 -49 13 -56z m171 -17 c9 -19 23 -35 29
-35 9 0 12 -11 9 -35 -2 -19 -8 -33 -12 -30 -5 3 -10 0 -12 -7 -3 -7 -7 -2
-10 10 -4 12 -2 20 2 17 5 -3 11 -1 15 5 3 6 -11 26 -31 45 -30 29 -42 34 -61
28 -13 -5 -23 -12 -22 -16 1 -16 -64 -81 -84 -84 -16 -3 -17 -1 -8 11 9 11 9
15 -1 20 -7 3 -3 4 10 2 29 -5 54 28 45 62 -4 16 -2 23 5 19 5 -4 25 0 43 8
51 22 65 18 83 -20z m-32 -37 c5 -30 -21 -86 -32 -68 -4 7 -14 16 -21 21 -10
6 -7 8 11 7 23 -3 25 0 22 30 -4 36 15 45 20 10z m490 0 c5 -26 -23 -90 -30
-70 -3 10 -7 10 -17 2 -11 -9 -14 -7 -12 9 1 15 6 19 18 16 23 -7 33 10 20 33
-10 19 -6 32 10 32 4 0 9 -10 11 -22z m-532 -62 c0 -3 -4 -8 -10 -11 -5 -3
-10 -1 -10 4 0 6 5 11 10 11 6 0 10 -2 10 -4z m-6 -273 c7 -18 -4 -44 -15 -37
-5 3 -9 -1 -9 -8 0 -10 -3 -9 -11 2 -9 13 -10 13 -6 0 2 -8 10 -15 18 -15 23
0 16 -28 -8 -31 -18 -3 -22 1 -21 27 1 17 -5 35 -13 40 -11 7 -10 11 6 23 24
17 53 17 59 -1z m81 7 c3 -5 16 -10 28 -11 22 0 22 0 -1 -10 -15 -6 -30 -5
-43 2 -11 5 -24 7 -29 4 -6 -3 -10 -2 -10 4 0 18 45 27 55 11z m386 0 c26 -14
24 -31 -3 -27 -13 2 -17 2 -10 0 8 -3 12 -13 9 -24 -3 -10 0 -22 5 -25 7 -4 4
-10 -6 -16 -9 -5 -21 -6 -26 -3 -6 3 -10 1 -10 -4 0 -14 26 -14 51 -1 11 6 35
8 56 4 31 -6 34 -8 18 -14 -18 -7 -19 -8 -2 -15 21 -9 22 -29 1 -49 -19 -20
-31 -20 -31 -1 0 8 4 12 8 9 17 -10 20 18 3 31 -23 18 -84 16 -84 -2 0 -7 -9
-22 -21 -34 -22 -22 -59 -34 -59 -18 0 5 6 9 13 9 8 0 7 4 -3 10 -12 8 -10 10
10 8 19 -2 26 2 28 20 3 17 -2 22 -17 22 -20 0 -41 43 -27 57 3 3 1 12 -5 20
-8 9 -8 13 -1 13 6 0 9 7 6 15 -4 8 -1 15 5 15 11 0 15 -22 11 -72 -1 -19 3
-28 13 -28 26 0 38 64 15 73 -9 3 -7 10 7 21 24 19 22 18 46 6z m139 -12 c0
-13 -42 -20 -53 -9 -18 18 -37 13 -37 -9 0 -17 14 -25 41 -22 4 1 15 -8 25
-19 14 -16 15 -22 4 -32 -10 -9 -11 -9 -6 1 5 8 -5 17 -29 28 -38 16 -51 34
-41 59 4 12 17 15 51 13 25 -2 45 -6 45 -10z m-699 -15 c1 -10 1 -22 0 -27 -4
-18 11 -46 25 -46 18 0 18 -16 0 -23 -14 -5 -27 13 -46 66 -6 18 -6 27 1 27 6
0 7 5 4 10 -3 6 -1 10 4 10 6 0 12 -8 12 -17z m174 -34 c36 -13 62 -49 36 -49
-6 0 -10 5 -8 12 1 7 -11 17 -28 23 -40 14 -55 24 -55 38 0 8 3 9 8 1 4 -5 25
-17 47 -25z m-5 -39 c14 -4 19 -8 13 -9 -10 -1 -10 -7 0 -28 6 -16 15 -31 20
-34 9 -6 4 -85 -6 -95 -3 -4 -13 1 -22 10 -15 15 -12 20 8 17 17 -3 6 57 -15
75 -21 19 -21 19 -15 -5 7 -27 -18 -72 -37 -65 -6 2 -12 14 -13 25 -2 16 1 18
11 10 19 -16 27 -2 20 37 -5 25 -3 33 5 28 6 -4 11 -2 11 3 0 6 -14 11 -31 11
-17 0 -28 -4 -24 -10 3 -5 -2 -24 -11 -42 -10 -18 -19 -27 -21 -20 -3 6 -9 10
-14 6 -18 -11 -9 8 12 25 19 16 20 18 4 31 -15 12 -13 15 17 26 39 14 55 15
88 4z m416 -59 c-9 -16 -12 -31 -9 -35 3 -3 -8 -19 -25 -36 -18 -17 -32 -27
-32 -24 0 4 -7 1 -15 -6 -9 -7 -18 -10 -21 -7 -9 9 20 48 33 43 14 -6 45 27
42 46 -3 21 12 48 27 48 12 0 12 -4 0 -29z"/>
<path d="M917 1526 c-3 -8 -2 -18 3 -21 13 -8 20 9 11 24 -6 10 -10 9 -14 -3z"/>
<path d="M820 1514 c0 -8 5 -12 10 -9 6 4 8 11 5 16 -9 14 -15 11 -15 -7z"/>
<path d="M867 1447 c-3 -7 -2 -19 3 -26 5 -10 8 -9 13 2 3 7 2 19 -3 26 -5 10
-8 9 -13 -2z"/>
<path d="M816 1355 c-3 -9 0 -15 9 -15 16 0 20 16 6 24 -5 3 -11 -1 -15 -9z"/>
<path d="M915 1360 c-4 -6 -3 -16 3 -22 13 -13 23 4 13 21 -7 10 -10 10 -16 1z"/>
<path d="M798 1282 c-15 -3 -18 -14 -18 -66 0 -57 2 -64 25 -76 26 -14 33 -34
15 -43 -6 -3 -5 -4 2 -3 7 1 14 12 16 24 3 18 10 22 38 22 30 0 34 -3 34 -25
0 -16 6 -25 15 -25 9 0 15 9 15 24 0 13 7 26 15 30 11 4 15 22 15 71 0 55 -3
65 -17 66 -10 0 -45 1 -78 2 -33 1 -68 1 -77 -1z m28 -29 c-10 -10 -19 5 -10
18 6 11 8 11 12 0 2 -7 1 -15 -2 -18z m51 -5 c-3 -7 -5 -2 -5 12 0 14 2 19 5
13 2 -7 2 -19 0 -25z m50 10 c-3 -8 -6 -5 -6 6 -1 11 2 17 5 13 3 -3 4 -12 1
-19z m-20 -55 c2 -6 -5 -14 -16 -18 -23 -7 -64 11 -56 25 8 13 68 7 72 -7z
m-87 -27 c0 -3 -4 -8 -10 -11 -5 -3 -10 -1 -10 4 0 6 5 11 10 11 6 0 10 -2 10
-4z m130 -6 c0 -5 -4 -10 -10 -10 -5 0 -10 5 -10 10 0 6 5 10 10 10 6 0 10 -4
10 -10z m-23 -62 c-3 -8 -6 -5 -6 6 -1 11 2 17 5 13 3 -3 4 -12 1 -19z"/>
<path d="M857 1198 c2 -5 10 -8 18 -8 8 0 16 3 18 8 3 4 -5 7 -18 7 -13 0 -21
-3 -18 -7z"/>
<path d="M527 1231 c-3 -12 -2 -23 3 -26 11 -7 20 19 10 34 -5 9 -9 7 -13 -8z"/>
<path d="M626 1235 c-3 -10 -3 -22 3 -28 12 -12 20 4 11 27 -6 19 -7 19 -14 1z"/>
<path d="M726 1235 c-3 -10 -3 -22 3 -28 12 -12 20 4 11 27 -6 19 -7 19 -14 1z"/>
<path d="M1007 1231 c-3 -11 -1 -23 3 -26 14 -8 22 13 12 31 -8 14 -10 14 -15
-5z"/>
<path d="M1107 1231 c-3 -12 -2 -23 3 -26 11 -7 20 19 10 34 -5 9 -9 7 -13 -8z"/>
<path d="M1207 1231 c-3 -11 -1 -23 3 -26 14 -8 22 13 12 31 -8 14 -10 14 -15
-5z"/>
<path d="M577 1177 c-3 -7 -2 -19 3 -26 5 -10 8 -9 13 2 3 7 2 19 -3 26 -5 10
-8 9 -13 -2z"/>
<path d="M677 1177 c-3 -7 -2 -19 3 -26 5 -10 8 -9 13 2 3 7 2 19 -3 26 -5 10
-8 9 -13 -2z"/>
<path d="M1060 1163 c0 -21 3 -24 9 -14 5 8 7 20 4 28 -8 21 -13 15 -13 -14z"/>
<path d="M1160 1169 c0 -11 4 -18 10 -14 5 3 7 12 3 20 -7 21 -13 19 -13 -6z"/>
<path d="M867 1046 c-3 -8 -2 -18 3 -21 13 -8 20 9 11 24 -6 10 -10 9 -14 -3z"/>
<path d="M916 965 c-3 -10 -3 -22 3 -28 12 -12 20 4 11 27 -6 19 -7 19 -14 1z"/>
<path d="M815 950 c-3 -5 1 -10 9 -10 9 0 16 5 16 10 0 6 -4 10 -9 10 -6 0
-13 -4 -16 -10z"/>
<path d="M867 876 c-3 -8 -2 -18 3 -21 13 -8 20 9 11 24 -6 10 -10 9 -14 -3z"/>
<path d="M916 795 c-3 -10 -3 -22 3 -28 12 -12 20 4 11 27 -6 19 -7 19 -14 1z"/>
<path d="M815 780 c-3 -5 3 -10 15 -10 12 0 18 5 15 10 -3 6 -10 10 -15 10 -5
0 -12 -4 -15 -10z"/>
<path d="M590 1509 c0 -5 5 -7 10 -4 6 3 10 8 10 11 0 2 -4 4 -10 4 -5 0 -10
-5 -10 -11z"/>
<path d="M1161 551 c-40 -4 -65 -11 -67 -19 -1 -7 0 -8 3 -2 2 5 16 10 29 10
23 0 24 -3 24 -64 0 -42 -4 -66 -12 -69 -7 -3 3 -5 22 -5 19 0 29 2 23 5 -9 3
-13 27 -13 70 l0 65 30 -4 c20 -3 30 0 30 9 0 7 -1 12 -2 11 -2 -1 -32 -4 -67
-7z"/>
<path d="M60 484 c6 -69 16 -84 61 -84 26 0 49 16 49 34 0 6 -5 3 -11 -6 -14
-25 -56 -23 -70 3 -6 12 -9 43 -7 70 2 39 0 49 -12 49 -13 0 -15 -11 -10 -66z"/>
<path d="M168 513 c6 -65 10 -70 11 -15 0 28 -3 52 -7 52 -4 0 -6 -17 -4 -37z"/>
<path d="M228 484 c3 -48 0 -69 -10 -75 -9 -6 -3 -8 17 -8 17 0 24 3 18 6 -8
3 -13 25 -13 61 l1 57 22 -25 c12 -14 36 -44 54 -65 l31 -40 4 78 c2 47 -1 77
-7 77 -6 0 -9 -22 -7 -52 l3 -53 -40 45 c-22 25 -41 48 -41 53 0 4 -8 7 -17 7
-16 0 -18 -8 -15 -66z"/>
<path d="M408 484 c3 -48 0 -69 -10 -75 -8 -6 -1 -9 22 -9 23 0 30 3 22 9 -10
6 -13 27 -10 75 2 54 0 66 -12 66 -12 0 -14 -12 -12 -66z"/>
<path d="M477 538 c5 -7 20 -39 33 -70 23 -60 33 -70 44 -42 8 21 8 26 -3 20
-8 -5 -41 68 -41 92 0 7 -10 12 -21 12 -16 0 -19 -3 -12 -12z"/>
<path d="M577 523 c-7 -39 -1 -40 11 -4 6 17 7 31 3 31 -5 0 -11 -12 -14 -27z"/>
<path d="M638 484 c3 -48 0 -69 -10 -75 -8 -5 9 -9 45 -9 31 0 57 3 57 8 0 4
-15 7 -32 7 l-33 0 -2 64 -2 63 29 -4 c17 -3 30 -1 30 4 0 4 -19 8 -42 8 l-43
0 3 -66z"/>
<path d="M765 475 c0 -73 1 -75 25 -75 19 0 21 3 12 12 -17 17 -15 58 2 58 8
0 23 -16 35 -35 11 -19 27 -35 36 -35 13 0 10 8 -11 35 -26 35 -26 36 -8 56
21 23 10 52 -22 57 -14 2 -16 1 -6 -6 22 -15 11 -57 -17 -60 -21 -3 -23 -1
-19 32 3 28 0 36 -12 36 -12 0 -15 -14 -15 -75z"/>
<path d="M922 538 c-21 -21 -13 -45 26 -77 36 -30 36 -31 18 -46 -11 -8 -16
-15 -10 -15 16 0 32 14 34 30 5 30 -1 40 -31 56 -25 12 -30 21 -26 40 5 28 5
28 -11 12z"/>
<path d="M976 535 c4 -8 8 -15 10 -15 2 0 4 7 4 15 0 8 -4 15 -10 15 -5 0 -7
-7 -4 -15z"/>
<path d="M1038 484 c3 -48 0 -69 -10 -75 -8 -6 -1 -9 22 -9 23 0 30 3 22 9
-10 6 -13 27 -10 75 2 54 0 66 -12 66 -12 0 -14 -12 -12 -66z"/>
<path d="M1250 547 c0 -2 11 -18 25 -37 27 -36 34 -95 13 -103 -7 -3 3 -6 22
-6 26 -1 31 2 22 11 -16 16 -15 61 1 77 10 10 9 11 -4 6 -12 -5 -21 2 -30 24
-8 18 -21 31 -31 31 -10 0 -18 -1 -18 -3z"/>
<path d="M1347 530 c-3 -11 -3 -20 -1 -20 2 0 8 9 14 20 6 11 7 20 2 20 -6 0
-12 -9 -15 -20z"/>
<path d="M1450 530 c-30 -30 -27 -83 6 -109 35 -28 69 -26 99 4 31 30 33 77 5
105 -26 26 -49 26 -25 0 22 -24 25 -81 6 -104 -16 -20 -55 -21 -70 -3 -21 26
-24 75 -7 102 20 30 13 32 -14 5z"/>
<path d="M1618 484 c3 -48 0 -69 -10 -75 -8 -6 -1 -9 22 -9 20 0 30 4 23 8 -7
5 -12 32 -12 71 l1 63 29 -4 c16 -3 29 -1 29 4 0 4 -19 8 -42 8 l-43 0 3 -66z"/>
<path d="M696 492 c-2 -4 -1 -14 5 -22 7 -12 9 -10 9 8 0 23 -5 28 -14 14z"/>
<path d="M910 410 c0 -6 7 -10 15 -10 8 0 15 2 15 4 0 2 -7 6 -15 10 -8 3 -15
1 -15 -4z"/>
<path d="M99 325 c-51 -28 -59 -105 -16 -152 26 -30 107 -33 128 -5 11 14 11
15 -1 5 -8 -7 -31 -13 -52 -13 -29 0 -41 6 -54 25 -21 33 -20 102 2 126 23 26
68 24 94 -3 19 -21 21 -21 14 -3 -4 11 -12 23 -18 27 -18 12 -69 8 -97 -7z"/>
<path d="M300 314 c-12 -31 -12 -37 -1 -30 11 7 54 -110 46 -124 -4 -6 7 -10
27 -10 18 0 28 4 22 8 -6 4 -26 46 -44 95 -18 48 -34 87 -37 87 -2 0 -8 -12
-13 -26z"/>
<path d="M429 330 c8 -5 33 -48 56 -96 l41 -87 27 63 c15 35 26 65 24 67 -3 2
-12 -15 -22 -39 l-18 -43 -32 69 c-28 60 -36 69 -61 72 -20 2 -24 0 -15 -6z"/>
<path d="M589 319 c-12 -23 -11 -32 1 -24 6 4 10 -20 10 -64 0 -46 -4 -71 -12
-74 -7 -3 5 -6 27 -6 22 0 35 3 29 7 -15 9 -27 151 -15 166 7 8 4 12 -10 12
-11 0 -25 -8 -30 -17z"/>
<path d="M690 332 c15 -5 13 -169 -2 -175 -7 -3 14 -6 48 -6 47 -1 65 3 77 17
23 25 21 59 -4 72 -19 11 -19 13 -4 24 21 15 16 60 -6 64 -13 2 -15 -3 -12
-23 3 -14 -1 -32 -8 -41 -11 -13 -10 -17 4 -25 35 -20 15 -83 -24 -77 -23 3
-24 7 -26 85 -2 77 -1 82 20 86 12 2 1 3 -25 3 -27 -1 -43 -2 -38 -4z"/>
<path d="M871 326 c14 -15 11 -163 -3 -169 -7 -3 5 -5 27 -5 22 0 34 2 28 5
-9 3 -13 31 -13 88 0 71 3 84 18 88 9 2 -2 3 -25 3 -26 -1 -38 -5 -32 -10z"/>
<path d="M1061 326 c14 -15 12 -163 -3 -169 -7 -3 5 -5 27 -5 22 0 34 2 28 5
-18 7 -18 170 0 176 6 2 -5 3 -25 3 -23 -1 -33 -5 -27 -10z"/>
<path d="M1166 327 c18 -10 20 -147 2 -165 -9 -9 -1 -12 39 -12 29 0 63 4 78
10 31 12 59 71 49 103 -8 28 -44 67 -61 67 -9 0 -6 -7 7 -20 14 -14 20 -33 20
-68 0 -58 -23 -85 -67 -80 l-28 3 0 80 c0 76 1 79 25 86 16 4 7 6 -27 5 -32 0
-46 -4 -37 -9z"/>
<path d="M1410 327 c-81 -41 -54 -165 40 -182 l35 -6 -35 18 c-19 10 -41 29
-48 43 -16 31 -9 86 14 111 22 25 79 25 94 2 10 -16 10 -16 8 2 -3 16 -12 21
-43 23 -22 1 -51 -4 -65 -11z"/>
<path d="M1581 326 c14 -15 12 -163 -3 -169 -7 -3 17 -6 53 -6 52 -1 68 2 73
15 9 24 7 31 -5 12 -6 -12 -22 -18 -44 -18 -34 0 -35 1 -35 40 0 36 3 40 24
40 13 0 27 -6 29 -12 3 -7 6 0 6 17 1 22 -2 26 -11 17 -7 -7 -20 -12 -30 -12
-14 0 -18 8 -18 40 0 35 3 40 23 40 13 0 28 -5 35 -12 9 -9 12 -8 12 4 0 13
-11 15 -59 14 -38 -1 -56 -5 -50 -10z"/>
<path d="M960 311 c14 -28 13 -38 -9 -58 -20 -18 -20 -19 7 -61 20 -30 34 -42
51 -42 21 0 23 2 9 13 -8 6 -25 27 -38 45 l-22 33 21 15 c33 23 22 74 -16 74
-10 0 -11 -5 -3 -19z"/>
<path d="M442 229 c-1 -30 -7 -60 -14 -67 -9 -9 -5 -12 18 -12 17 0 24 3 17 8
-6 4 -14 34 -16 67 l-3 60 -2 -56z"/>
<path d="M270 233 c-7 -21 -19 -48 -26 -60 -14 -22 -13 -23 13 -23 20 0 24 3
14 9 -11 7 -11 16 3 57 9 26 14 49 12 51 -2 3 -9 -13 -16 -34z"/>
<path d="M1491 214 c6 -8 9 -25 6 -39 -3 -20 -1 -25 12 -23 9 2 18 17 21 38 6
33 4 35 -22 36 -23 1 -26 -2 -17 -12z"/>
</g>
</svg>
